#!OML:ASF H:\Terrain\Patient Classification 1\Walking\liu\liu.ASF
:FULLY-SPECIFIED
:DEGREES
158
root 8.45248 16.6676 -3.34079 7.10289 -4.13569 -3.21161
lowerback -3.91574 2.01935 -1.2833
upperback -0.419552 2.69367 3.10139
thorax 1.55378 1.33287 4.05173
lowerneck -19.3776 -4.31007 -13.4375
upperneck 19.6737 -5.21457 13.6356
head 10.2053 -1.89817 6.40475
rclavicle 1.93815e-015 2.10712e-014
rhumerus -21.1174 25.3378 -83.6157
rradius 41.6731
rwrist -22.1741
rhand -31.2438 -28.0858
rfingers 7.12502
rthumb -4.51854 -58.0176
lclavicle 1.93815e-015 2.10712e-014
lhumerus -54.2018 -14.9048 97.7748
lradius 29.9085
lwrist 6.12961
lhand -8.27581 -25.3104
lfingers 7.12502
lthumb 17.6434 3.90911
rfemur -3.54727 6.28289 28.3045
rtibia 22.5562
rfoot -22.0736 3.70994
rtoes -11.6163
lfemur -42.1646 7.10983 -18.7092
ltibia 35.2317
lfoot -15.1945 11.2175
ltoes -12.7026
159
root 8.46134 16.6493 -3.15365 7.15818 -4.37818 -3.52568
lowerback -3.88509 2.18756 -1.08771
upperback -0.481878 2.90948 3.20945
thorax 1.45956 1.44407 4.06004
lowerneck -18.9621 -4.33103 -13.4734
upperneck 19.4897 -5.24428 13.5347
head 10.0642 -1.93864 6.35805
rclavicle -1.47101e-014 -2.38542e-014
rhumerus -20.619 26.0757 -83.2745
rradius 42.5819
rwrist -22.9914
rhand -31.1041 -27.2237
rfingers 7.12502
rthumb -4.38365 -57.1583
lclavicle -1.47101e-014 -2.38542e-014
lhumerus -54.6893 -14.0835 97.041
lradius 30.3579
lwrist 7.77562
lhand -5.11146 -23.0462
lfingers 7.12502
lthumb 20.6863 5.87134
rfemur -2.21446 6.31256 28.6013
rtibia 21.2374
rfoot -21.844 3.89684
rtoes -11.3849
lfemur -42.5691 7.09344 -18.2313
ltibia 32.8358
lfoot -14.8863 11.0224
ltoes -15.2373
160
root 8.47105 16.6415 -2.96203 7.27306 -4.56229 -3.96563
lowerback -4.01871 2.33151 -0.712157
upperback -0.467874 3.08224 3.29531
thorax 1.55044 1.53089 3.95243
lowerneck -19.3477 -4.44839 -13.0543
upperneck 19.8251 -5.39337 13.0183
head 10.2507 -2.01974 6.0818
rclavicle 1.49585e-014 -1.07344e-014
rhumerus -19.9585 26.7225 -82.9974
rradius 43.3561
rwrist -23.7326
rhand -31.0131 -26.4927
rfingers 7.12502
rthumb -4.29583 -56.4291
lclavicle 1.49585e-014 -1.07344e-014
lhumerus -55.1092 -13.5577 96.4967
lradius 30.08
lwrist 8.18354
lhand -4.9238 -23.375
lfingers 7.12502
lthumb 20.8666 5.52279
rfemur -0.828563 5.60583 28.9548
rtibia 19.7978
rfoot -21.5338 4.21807
rtoes -13.8432
lfemur -42.9297 6.4442 -17.2546
ltibia 30.656
lfoot -14.93 11.0136
ltoes -16.5721
161
root 8.48376 16.6333 -2.76717 7.4763 -4.68999 -4.21279
lowerback -4.39992 2.49809 -0.396475
upperback -0.403728 3.28409 3.24229
thorax 1.8359 1.62939 3.75212
lowerneck -20.1011 -4.68937 -12.5883
upperneck 20.4527 -5.7248 12.5396
head 10.6391 -2.16611 5.79429
rclavicle -1.23743e-014 5.56597e-015
rhumerus -19.2888 27.137 -82.6906
rradius 44.2186
rwrist -24.5376
rhand -30.9725 -26.2127
rfingers 7.12502
rthumb -4.25656 -56.15
lclavicle -1.23743e-014 5.56597e-015
lhumerus -55.3913 -13.0763 95.7782
lradius 29.427
lwrist 7.03175
lhand -6.33798 -24.7019
lfingers 7.12502
lthumb 19.5074 4.33948
rfemur 0.51803 4.66146 29.008
rtibia 18.2681
rfoot -21.2424 4.63172
rtoes -16.7193
lfemur -43.3366 5.4887 -16.3574
ltibia 28.6848
lfoot -15.1336 10.649
ltoes -15.027
162
root 8.49571 16.6016 -2.57604 7.53432 -5.09515 -4.73035
lowerback -4.37306 2.82354 0.0765853
upperback -0.467959 3.69478 3.37608
thorax 1.74834 1.83925 3.64321
lowerneck -19.3342 -4.71331 -13.3382
upperneck 19.9648 -5.79277 13.4082
head 10.3831 -2.18345 6.22447
rclavicle 3.57315e-014 3.49861e-014
rhumerus -18.9943 27.4784 -82.2439
rradius 45.1289
rwrist -25.1083
rhand -30.8063 -25.9978
rfingers 7.12502
rthumb -4.09614 -55.9381
lclavicle 3.57315e-014 3.49861e-014
lhumerus -55.9454 -12.5163 95.289
lradius 28.8454
lwrist 5.69048
lhand -8.2066 -25.2273
lfingers 7.12502
lthumb 17.71 3.98622
rfemur 2.00064 5.39805 29.5058
rtibia 16.6525
rfoot -20.7101 4.71952
rtoes -14.6833
lfemur -43.5674 4.48027 -14.7791
ltibia 26.8819
lfoot -15.1926 10.7886
ltoes -12.5057
